<svg xmlns="http://www.w3.org/2000/svg" viewBox="0 0 85 81"><path d="M17.1 2.7l1.2-1 1.3-.3 3.3-1.8 1.3-.2.2.3-3.2 2.5-2 .9-1.2.4-.9-.8zm46.1 23.6l.2 1.4 1.8.3.8-.6s.1-.8-.1-.9c-.2-.1-.8-1.1-.8-1.1H63l-.3.6.5.3zm12.7 37.2l-1.3-4.8-.6-5.2-1.1-2-1.3-1.2-1 .5-2.3.7-1.4 2.7-1.9 2-.7.3-.7-.5s-1.4-1-1.2-1.3c.1-.3.6-2.8.6-2.8l2-.5.7-1.8.5-1.4 1.5-.7.5-5.6-.8-1.4-.7-.5-.3-1.2.5-.4.9.3.2-.9-1.2-1.4-.6-1.5-1.4-.2-2.4-1.1-2.9-2.3-1.6-.3-.4.3-.5-.3-1.6-1.5-1.7.8-1.8 1.1-.1 2 .5.2 1.1.4.2.5-1.5.3h-1.5l-.9.9-.3 1.2.1.9-.2 3.1-2.1.9-.4-.1.3-2.4.9-1.3.5-1.3-.4-.5-1.1.4-.8 2.3-1.6.5-1.1 1-.2.5.3.5-.5 1.4-1.3.1-.1.6.3 1.4-1 3.4-1.2 2.2.1 2.7.2.7-.6 1.3-.2.4-.4 1.4 1.6 3.6 1.2 3.8.5 2.8-.8 2.6-.9 3.3-1.7 2.7-.4 1.5-1.9 1.5-.5.4 2.6.2 12.4.2h3.5l.1.7 4.4-.2 5.8-.2 2.9.1-.7-.7.2-.8 1.4-1.9 1.2-.8.2-2.8 1-.8.6-.1.4-2 1.1-1.6.5.4v.4l.4.1 1.1-.4.8-5.5zM6.6 18.3l1.1-.5 1.6-.3 2.1-1 .1-.5.4-.3 3.4-.2 1.5-.9 2.6-.9.2-.7 1.3-1.5 1-.3.8-.9 1.4-1.1L26.7 8h2.7l.6.7-.2.5-2.1.3-1 1.6-1.3.3-.4 1.3-1.6 1.6-.3 1.4.4.3.6-.6 2.2-1.4.6.8 1.3.1 1.7.8.7.7.6 1.8 1.4 1.7 2.2.2.9-.4.8.8.9.4.8-.4.6.1 1-.4 2.5-1.7 2-.4 3.7.2 2.7-.8 1.5-.6.8.2-.4 3.2.3.2 1.6.6 1.1-.1 3.5-.5.7-.6.8.4-.5 3.9 1.6 1.9.7.4.7.6-.7.1-.4-.2-2-.5-1.6.5-1.3-.2-1.9.6-1-.1-3.2-1.1-2.9-.2-1.1 1.3-4-.1-1.4.3-.8 1.6-.8.6-.3-.1-.7-1-2.7 1.1h-.4l-.5-1h-.5L33.5 31l-.8 2.2-2.6 4.3-.8-.7-.7-.9-.2-5.9-2-.9-.6-1.4-6.8-2.3-1.3-.8-4.5-1.8-4.5-1.2-2.1-3.3z" fill="#fff"/></svg>